<?xml version="1.0" encoding="UTF-8"?><svg id="Layer_1" xmlns="http://www.w3.org/2000/svg" viewBox="0 0 240.58 115.54"><defs><style>.cls-1{fill:#232323;}.cls-1,.cls-2{stroke-width:0px;}.cls-2{fill:#fa0;}</style></defs><path class="cls-1" d="m103.77,21.46v30.54h52.58v21.46h-52.58v42.09h-26.29V0h85.85v21.46h-59.56Z"/><path class="cls-1" d="m178.5,111.24c-6.44-2.87-11.71-6.95-15.82-12.25l14.61-17.53c6.17,8.33,13.2,12.5,21.1,12.5,10.71,0,16.07-6.27,16.07-18.82V21.1h-39.92V0h66.05v73.68c0,13.96-3.46,24.42-10.39,31.4-6.92,6.98-17.1,10.47-30.51,10.47-7.68,0-14.74-1.44-21.18-4.3Z"/><polygon class="cls-2" points="17.13 8.37 0 25.5 29.86 55.36 0 85.21 17.13 102.34 64.11 55.36 17.13 8.37"/></svg>