<?xml version="1.0" encoding="UTF-8"?><svg id="Layer_1" xmlns="http://www.w3.org/2000/svg" viewBox="0 0 35.16 22.26"><defs><style>.cls-1{fill:#fff;}.cls-1,.cls-2{stroke-width:0px;}.cls-2{fill:#fba919;}</style></defs><polygon class="cls-2" points="19.35 8.01 17.58 6.24 11.34 12.48 9.98 11.13 16.23 4.89 14.46 3.12 8.22 9.36 8.22 9.36 6.45 11.13 6.45 11.13 6.45 11.13 8.22 12.9 8.22 12.9 9.57 14.25 11.34 16.02 17.58 22.26 19.35 20.49 13.11 14.25 19.35 8.01"/><polygon class="cls-1" points="28.71 11.13 26.94 9.36 17.58 0 15.81 1.77 25.17 11.13 20.7 15.6 19.35 14.25 22.47 11.13 20.7 9.36 17.58 12.48 17.58 12.48 15.81 14.25 20.7 19.14 20.7 19.14 20.7 19.14 28.71 11.13"/><polygon class="cls-2" points="22.26 1.77 31.62 11.13 22.26 20.49 24.03 22.26 33.39 12.9 35.16 11.13 33.39 9.36 24.03 0 22.26 1.77"/><polygon class="cls-1" points="12.9 20.49 3.54 11.13 12.9 1.77 11.13 0 1.77 9.36 0 11.13 1.77 12.9 11.13 22.26 12.9 20.49"/></svg>